<svg xmlns="http://www.w3.org/2000/svg" viewBox="0 0 988 662" font-family="-apple-system, BlinkMacSystemFont, sans-serif">
  <style>text { font-family: -apple-system, sans-serif; fill: #2a2a2a; } .title { font-size: 18px; font-weight: 700; } .subtitle { font-size: 11px; fill: #666; } .rl { font-size: 11px; } .mh { font-size: 11px; font-weight: 600; fill: #555; text-anchor: middle; } .cv { font-size: 10px; text-anchor: middle; }</style>
  <rect width="988" height="662" fill="white"/>
  <text x="300" y="34" class="title">Kalendář kvetení po zónách</text>
  <text x="300" y="54" class="subtitle">buňka = počet druhů v zóně kvetoucích v daném měsíci (cibuloviny, trvalky i dřeviny); měsíce kvetení jsou orientační</text>
  <text x="326" y="86" class="mh">I</text>
  <text x="380" y="86" class="mh">II</text>
  <text x="434" y="86" class="mh">III</text>
  <text x="488" y="86" class="mh">IV</text>
  <text x="542" y="86" class="mh">V</text>
  <text x="596" y="86" class="mh">VI</text>
  <text x="650" y="86" class="mh">VII</text>
  <text x="704" y="86" class="mh">VIII</text>
  <text x="758" y="86" class="mh">IX</text>
  <text x="812" y="86" class="mh">X</text>
  <text x="866" y="86" class="mh">XI</text>
  <text x="920" y="86" class="mh">XII</text>
  <text x="290" y="116" class="rl" text-anchor="end">Terrace bed (bedTerrace)</text>
  <rect x="300" y="96" width="52" height="32" rx="3" fill="#f0efec"/>
  <rect x="354" y="96" width="52" height="32" rx="3" fill="#f0efec"/>
  <rect x="408" y="96" width="52" height="32" rx="3" fill="#f0efec"/>
  <rect x="462" y="96" width="52" height="32" rx="3" fill="#cde2fb"/><text x="488" y="116" class="cv" style="fill:#0b0b0b">2</text>
  <rect x="516" y="96" width="52" height="32" rx="3" fill="#cde2fb"/><text x="542" y="116" class="cv" style="fill:#0b0b0b">1</text>
  <rect x="570" y="96" width="52" height="32" rx="3" fill="#6da7ec"/><text x="596" y="116" class="cv" style="fill:#0b0b0b">5</text>
  <rect x="624" y="96" width="52" height="32" rx="3" fill="#6da7ec"/><text x="650" y="116" class="cv" style="fill:#0b0b0b">5</text>
  <rect x="678" y="96" width="52" height="32" rx="3" fill="#6da7ec"/><text x="704" y="116" class="cv" style="fill:#0b0b0b">5</text>
  <rect x="732" y="96" width="52" height="32" rx="3" fill="#9ec5f4"/><text x="758" y="116" class="cv" style="fill:#0b0b0b">4</text>
  <rect x="786" y="96" width="52" height="32" rx="3" fill="#f0efec"/>
  <rect x="840" y="96" width="52" height="32" rx="3" fill="#f0efec"/>
  <rect x="894" y="96" width="52" height="32" rx="3" fill="#f0efec"/>
  <text x="290" y="150" class="rl" text-anchor="end">Pond fringe (pondFringe)</text>
  <rect x="300" y="130" width="52" height="32" rx="3" fill="#f0efec"/>
  <rect x="354" y="130" width="52" height="32" rx="3" fill="#cde2fb"/><text x="380" y="150" class="cv" style="fill:#0b0b0b">1</text>
  <rect x="408" y="130" width="52" height="32" rx="3" fill="#cde2fb"/><text x="434" y="150" class="cv" style="fill:#0b0b0b">1</text>
  <rect x="462" y="130" width="52" height="32" rx="3" fill="#f0efec"/>
  <rect x="516" y="130" width="52" height="32" rx="3" fill="#9ec5f4"/><text x="542" y="150" class="cv" style="fill:#0b0b0b">4</text>
  <rect x="570" y="130" width="52" height="32" rx="3" fill="#6da7ec"/><text x="596" y="150" class="cv" style="fill:#0b0b0b">6</text>
  <rect x="624" y="130" width="52" height="32" rx="3" fill="#6da7ec"/><text x="650" y="150" class="cv" style="fill:#0b0b0b">6</text>
  <rect x="678" y="130" width="52" height="32" rx="3" fill="#9ec5f4"/><text x="704" y="150" class="cv" style="fill:#0b0b0b">4</text>
  <rect x="732" y="130" width="52" height="32" rx="3" fill="#9ec5f4"/><text x="758" y="150" class="cv" style="fill:#0b0b0b">3</text>
  <rect x="786" y="130" width="52" height="32" rx="3" fill="#cde2fb"/><text x="812" y="150" class="cv" style="fill:#0b0b0b">1</text>
  <rect x="840" y="130" width="52" height="32" rx="3" fill="#f0efec"/>
  <rect x="894" y="130" width="52" height="32" rx="3" fill="#f0efec"/>
  <text x="290" y="184" class="rl" text-anchor="end">Prairie island (prairieIsland)</text>
  <rect x="300" y="164" width="52" height="32" rx="3" fill="#f0efec"/>
  <rect x="354" y="164" width="52" height="32" rx="3" fill="#f0efec"/>
  <rect x="408" y="164" width="52" height="32" rx="3" fill="#f0efec"/>
  <rect x="462" y="164" width="52" height="32" rx="3" fill="#f0efec"/>
  <rect x="516" y="164" width="52" height="32" rx="3" fill="#f0efec"/>
  <rect x="570" y="164" width="52" height="32" rx="3" fill="#cde2fb"/><text x="596" y="184" class="cv" style="fill:#0b0b0b">2</text>
  <rect x="624" y="164" width="52" height="32" rx="3" fill="#6da7ec"/><text x="650" y="184" class="cv" style="fill:#0b0b0b">5</text>
  <rect x="678" y="164" width="52" height="32" rx="3" fill="#6da7ec"/><text x="704" y="184" class="cv" style="fill:#0b0b0b">6</text>
  <rect x="732" y="164" width="52" height="32" rx="3" fill="#6da7ec"/><text x="758" y="184" class="cv" style="fill:#0b0b0b">6</text>
  <rect x="786" y="164" width="52" height="32" rx="3" fill="#9ec5f4"/><text x="812" y="184" class="cv" style="fill:#0b0b0b">3</text>
  <rect x="840" y="164" width="52" height="32" rx="3" fill="#f0efec"/>
  <rect x="894" y="164" width="52" height="32" rx="3" fill="#f0efec"/>
  <text x="290" y="218" class="rl" text-anchor="end">Sauna bed (saunaBed)</text>
  <rect x="300" y="198" width="52" height="32" rx="3" fill="#f0efec"/>
  <rect x="354" y="198" width="52" height="32" rx="3" fill="#f0efec"/>
  <rect x="408" y="198" width="52" height="32" rx="3" fill="#cde2fb"/><text x="434" y="218" class="cv" style="fill:#0b0b0b">1</text>
  <rect x="462" y="198" width="52" height="32" rx="3" fill="#cde2fb"/><text x="488" y="218" class="cv" style="fill:#0b0b0b">1</text>
  <rect x="516" y="198" width="52" height="32" rx="3" fill="#cde2fb"/><text x="542" y="218" class="cv" style="fill:#0b0b0b">1</text>
  <rect x="570" y="198" width="52" height="32" rx="3" fill="#9ec5f4"/><text x="596" y="218" class="cv" style="fill:#0b0b0b">4</text>
  <rect x="624" y="198" width="52" height="32" rx="3" fill="#9ec5f4"/><text x="650" y="218" class="cv" style="fill:#0b0b0b">4</text>
  <rect x="678" y="198" width="52" height="32" rx="3" fill="#9ec5f4"/><text x="704" y="218" class="cv" style="fill:#0b0b0b">4</text>
  <rect x="732" y="198" width="52" height="32" rx="3" fill="#9ec5f4"/><text x="758" y="218" class="cv" style="fill:#0b0b0b">3</text>
  <rect x="786" y="198" width="52" height="32" rx="3" fill="#f0efec"/>
  <rect x="840" y="198" width="52" height="32" rx="3" fill="#f0efec"/>
  <rect x="894" y="198" width="52" height="32" rx="3" fill="#f0efec"/>
  <text x="290" y="252" class="rl" text-anchor="end">Pergola beds (pergolaBeds)</text>
  <rect x="300" y="232" width="52" height="32" rx="3" fill="#f0efec"/>
  <rect x="354" y="232" width="52" height="32" rx="3" fill="#f0efec"/>
  <rect x="408" y="232" width="52" height="32" rx="3" fill="#f0efec"/>
  <rect x="462" y="232" width="52" height="32" rx="3" fill="#f0efec"/>
  <rect x="516" y="232" width="52" height="32" rx="3" fill="#f0efec"/>
  <rect x="570" y="232" width="52" height="32" rx="3" fill="#9ec5f4"/><text x="596" y="252" class="cv" style="fill:#0b0b0b">4</text>
  <rect x="624" y="232" width="52" height="32" rx="3" fill="#6da7ec"/><text x="650" y="252" class="cv" style="fill:#0b0b0b">6</text>
  <rect x="678" y="232" width="52" height="32" rx="3" fill="#6da7ec"/><text x="704" y="252" class="cv" style="fill:#0b0b0b">6</text>
  <rect x="732" y="232" width="52" height="32" rx="3" fill="#6da7ec"/><text x="758" y="252" class="cv" style="fill:#0b0b0b">6</text>
  <rect x="786" y="232" width="52" height="32" rx="3" fill="#cde2fb"/><text x="812" y="252" class="cv" style="fill:#0b0b0b">1</text>
  <rect x="840" y="232" width="52" height="32" rx="3" fill="#f0efec"/>
  <rect x="894" y="232" width="52" height="32" rx="3" fill="#f0efec"/>
  <text x="290" y="286" class="rl" text-anchor="end">Arrival strip (arrivalStrip)</text>
  <rect x="300" y="266" width="52" height="32" rx="3" fill="#f0efec"/>
  <rect x="354" y="266" width="52" height="32" rx="3" fill="#f0efec"/>
  <rect x="408" y="266" width="52" height="32" rx="3" fill="#f0efec"/>
  <rect x="462" y="266" width="52" height="32" rx="3" fill="#9ec5f4"/><text x="488" y="286" class="cv" style="fill:#0b0b0b">4</text>
  <rect x="516" y="266" width="52" height="32" rx="3" fill="#9ec5f4"/><text x="542" y="286" class="cv" style="fill:#0b0b0b">3</text>
  <rect x="570" y="266" width="52" height="32" rx="3" fill="#256abf"/><text x="596" y="286" class="cv" style="fill:#ffffff">8</text>
  <rect x="624" y="266" width="52" height="32" rx="3" fill="#0d366b"/><text x="650" y="286" class="cv" style="fill:#ffffff">12</text>
  <rect x="678" y="266" width="52" height="32" rx="3" fill="#184f95"/><text x="704" y="286" class="cv" style="fill:#ffffff">10</text>
  <rect x="732" y="266" width="52" height="32" rx="3" fill="#256abf"/><text x="758" y="286" class="cv" style="fill:#ffffff">9</text>
  <rect x="786" y="266" width="52" height="32" rx="3" fill="#cde2fb"/><text x="812" y="286" class="cv" style="fill:#0b0b0b">1</text>
  <rect x="840" y="266" width="52" height="32" rx="3" fill="#f0efec"/>
  <rect x="894" y="266" width="52" height="32" rx="3" fill="#f0efec"/>
  <text x="290" y="320" class="rl" text-anchor="end">East understory (eastUnderstory)</text>
  <rect x="300" y="300" width="52" height="32" rx="3" fill="#f0efec"/>
  <rect x="354" y="300" width="52" height="32" rx="3" fill="#cde2fb"/><text x="380" y="320" class="cv" style="fill:#0b0b0b">1</text>
  <rect x="408" y="300" width="52" height="32" rx="3" fill="#cde2fb"/><text x="434" y="320" class="cv" style="fill:#0b0b0b">1</text>
  <rect x="462" y="300" width="52" height="32" rx="3" fill="#9ec5f4"/><text x="488" y="320" class="cv" style="fill:#0b0b0b">3</text>
  <rect x="516" y="300" width="52" height="32" rx="3" fill="#3987e5"/><text x="542" y="320" class="cv" style="fill:#ffffff">7</text>
  <rect x="570" y="300" width="52" height="32" rx="3" fill="#9ec5f4"/><text x="596" y="320" class="cv" style="fill:#0b0b0b">4</text>
  <rect x="624" y="300" width="52" height="32" rx="3" fill="#cde2fb"/><text x="650" y="320" class="cv" style="fill:#0b0b0b">2</text>
  <rect x="678" y="300" width="52" height="32" rx="3" fill="#cde2fb"/><text x="704" y="320" class="cv" style="fill:#0b0b0b">1</text>
  <rect x="732" y="300" width="52" height="32" rx="3" fill="#cde2fb"/><text x="758" y="320" class="cv" style="fill:#0b0b0b">1</text>
  <rect x="786" y="300" width="52" height="32" rx="3" fill="#cde2fb"/><text x="812" y="320" class="cv" style="fill:#0b0b0b">1</text>
  <rect x="840" y="300" width="52" height="32" rx="3" fill="#f0efec"/>
  <rect x="894" y="300" width="52" height="32" rx="3" fill="#f0efec"/>
  <text x="290" y="354" class="rl" text-anchor="end">Atrium pots (atriumPots)</text>
  <rect x="300" y="334" width="52" height="32" rx="3" fill="#f0efec"/>
  <rect x="354" y="334" width="52" height="32" rx="3" fill="#cde2fb"/><text x="380" y="354" class="cv" style="fill:#0b0b0b">1</text>
  <rect x="408" y="334" width="52" height="32" rx="3" fill="#cde2fb"/><text x="434" y="354" class="cv" style="fill:#0b0b0b">1</text>
  <rect x="462" y="334" width="52" height="32" rx="3" fill="#9ec5f4"/><text x="488" y="354" class="cv" style="fill:#0b0b0b">3</text>
  <rect x="516" y="334" width="52" height="32" rx="3" fill="#cde2fb"/><text x="542" y="354" class="cv" style="fill:#0b0b0b">2</text>
  <rect x="570" y="334" width="52" height="32" rx="3" fill="#f0efec"/>
  <rect x="624" y="334" width="52" height="32" rx="3" fill="#cde2fb"/><text x="650" y="354" class="cv" style="fill:#0b0b0b">1</text>
  <rect x="678" y="334" width="52" height="32" rx="3" fill="#cde2fb"/><text x="704" y="354" class="cv" style="fill:#0b0b0b">1</text>
  <rect x="732" y="334" width="52" height="32" rx="3" fill="#f0efec"/>
  <rect x="786" y="334" width="52" height="32" rx="3" fill="#f0efec"/>
  <rect x="840" y="334" width="52" height="32" rx="3" fill="#f0efec"/>
  <rect x="894" y="334" width="52" height="32" rx="3" fill="#f0efec"/>
  <text x="290" y="388" class="rl" text-anchor="end">North bed (northFoundation)</text>
  <rect x="300" y="368" width="52" height="32" rx="3" fill="#f0efec"/>
  <rect x="354" y="368" width="52" height="32" rx="3" fill="#cde2fb"/><text x="380" y="388" class="cv" style="fill:#0b0b0b">1</text>
  <rect x="408" y="368" width="52" height="32" rx="3" fill="#cde2fb"/><text x="434" y="388" class="cv" style="fill:#0b0b0b">2</text>
  <rect x="462" y="368" width="52" height="32" rx="3" fill="#6da7ec"/><text x="488" y="388" class="cv" style="fill:#0b0b0b">6</text>
  <rect x="516" y="368" width="52" height="32" rx="3" fill="#184f95"/><text x="542" y="388" class="cv" style="fill:#ffffff">10</text>
  <rect x="570" y="368" width="52" height="32" rx="3" fill="#6da7ec"/><text x="596" y="388" class="cv" style="fill:#0b0b0b">5</text>
  <rect x="624" y="368" width="52" height="32" rx="3" fill="#9ec5f4"/><text x="650" y="388" class="cv" style="fill:#0b0b0b">4</text>
  <rect x="678" y="368" width="52" height="32" rx="3" fill="#9ec5f4"/><text x="704" y="388" class="cv" style="fill:#0b0b0b">4</text>
  <rect x="732" y="368" width="52" height="32" rx="3" fill="#9ec5f4"/><text x="758" y="388" class="cv" style="fill:#0b0b0b">4</text>
  <rect x="786" y="368" width="52" height="32" rx="3" fill="#cde2fb"/><text x="812" y="388" class="cv" style="fill:#0b0b0b">1</text>
  <rect x="840" y="368" width="52" height="32" rx="3" fill="#f0efec"/>
  <rect x="894" y="368" width="52" height="32" rx="3" fill="#f0efec"/>
  <text x="290" y="422" class="rl" text-anchor="end">Peony bed (southFoundation)</text>
  <rect x="300" y="402" width="52" height="32" rx="3" fill="#f0efec"/>
  <rect x="354" y="402" width="52" height="32" rx="3" fill="#f0efec"/>
  <rect x="408" y="402" width="52" height="32" rx="3" fill="#f0efec"/>
  <rect x="462" y="402" width="52" height="32" rx="3" fill="#9ec5f4"/><text x="488" y="422" class="cv" style="fill:#0b0b0b">3</text>
  <rect x="516" y="402" width="52" height="32" rx="3" fill="#9ec5f4"/><text x="542" y="422" class="cv" style="fill:#0b0b0b">4</text>
  <rect x="570" y="402" width="52" height="32" rx="3" fill="#6da7ec"/><text x="596" y="422" class="cv" style="fill:#0b0b0b">5</text>
  <rect x="624" y="402" width="52" height="32" rx="3" fill="#9ec5f4"/><text x="650" y="422" class="cv" style="fill:#0b0b0b">4</text>
  <rect x="678" y="402" width="52" height="32" rx="3" fill="#9ec5f4"/><text x="704" y="422" class="cv" style="fill:#0b0b0b">3</text>
  <rect x="732" y="402" width="52" height="32" rx="3" fill="#cde2fb"/><text x="758" y="422" class="cv" style="fill:#0b0b0b">2</text>
  <rect x="786" y="402" width="52" height="32" rx="3" fill="#cde2fb"/><text x="812" y="422" class="cv" style="fill:#0b0b0b">1</text>
  <rect x="840" y="402" width="52" height="32" rx="3" fill="#f0efec"/>
  <rect x="894" y="402" width="52" height="32" rx="3" fill="#f0efec"/>
  <text x="290" y="456" class="rl" text-anchor="end">Garage bed (garageFaceBed)</text>
  <rect x="300" y="436" width="52" height="32" rx="3" fill="#f0efec"/>
  <rect x="354" y="436" width="52" height="32" rx="3" fill="#f0efec"/>
  <rect x="408" y="436" width="52" height="32" rx="3" fill="#f0efec"/>
  <rect x="462" y="436" width="52" height="32" rx="3" fill="#9ec5f4"/><text x="488" y="456" class="cv" style="fill:#0b0b0b">3</text>
  <rect x="516" y="436" width="52" height="32" rx="3" fill="#6da7ec"/><text x="542" y="456" class="cv" style="fill:#0b0b0b">6</text>
  <rect x="570" y="436" width="52" height="32" rx="3" fill="#9ec5f4"/><text x="596" y="456" class="cv" style="fill:#0b0b0b">3</text>
  <rect x="624" y="436" width="52" height="32" rx="3" fill="#cde2fb"/><text x="650" y="456" class="cv" style="fill:#0b0b0b">2</text>
  <rect x="678" y="436" width="52" height="32" rx="3" fill="#cde2fb"/><text x="704" y="456" class="cv" style="fill:#0b0b0b">1</text>
  <rect x="732" y="436" width="52" height="32" rx="3" fill="#cde2fb"/><text x="758" y="456" class="cv" style="fill:#0b0b0b">1</text>
  <rect x="786" y="436" width="52" height="32" rx="3" fill="#cde2fb"/><text x="812" y="456" class="cv" style="fill:#0b0b0b">1</text>
  <rect x="840" y="436" width="52" height="32" rx="3" fill="#f0efec"/>
  <rect x="894" y="436" width="52" height="32" rx="3" fill="#f0efec"/>
  <text x="290" y="490" class="rl" text-anchor="end">Rain garden (rainGarden)</text>
  <rect x="300" y="470" width="52" height="32" rx="3" fill="#f0efec"/>
  <rect x="354" y="470" width="52" height="32" rx="3" fill="#cde2fb"/><text x="380" y="490" class="cv" style="fill:#0b0b0b">1</text>
  <rect x="408" y="470" width="52" height="32" rx="3" fill="#cde2fb"/><text x="434" y="490" class="cv" style="fill:#0b0b0b">1</text>
  <rect x="462" y="470" width="52" height="32" rx="3" fill="#f0efec"/>
  <rect x="516" y="470" width="52" height="32" rx="3" fill="#9ec5f4"/><text x="542" y="490" class="cv" style="fill:#0b0b0b">3</text>
  <rect x="570" y="470" width="52" height="32" rx="3" fill="#9ec5f4"/><text x="596" y="490" class="cv" style="fill:#0b0b0b">4</text>
  <rect x="624" y="470" width="52" height="32" rx="3" fill="#cde2fb"/><text x="650" y="490" class="cv" style="fill:#0b0b0b">2</text>
  <rect x="678" y="470" width="52" height="32" rx="3" fill="#cde2fb"/><text x="704" y="490" class="cv" style="fill:#0b0b0b">1</text>
  <rect x="732" y="470" width="52" height="32" rx="3" fill="#cde2fb"/><text x="758" y="490" class="cv" style="fill:#0b0b0b">1</text>
  <rect x="786" y="470" width="52" height="32" rx="3" fill="#f0efec"/>
  <rect x="840" y="470" width="52" height="32" rx="3" fill="#f0efec"/>
  <rect x="894" y="470" width="52" height="32" rx="3" fill="#f0efec"/>
  <text x="290" y="524" class="rl" text-anchor="end">Orchard meadow (orchardMeadow)</text>
  <rect x="300" y="504" width="52" height="32" rx="3" fill="#f0efec"/>
  <rect x="354" y="504" width="52" height="32" rx="3" fill="#f0efec"/>
  <rect x="408" y="504" width="52" height="32" rx="3" fill="#f0efec"/>
  <rect x="462" y="504" width="52" height="32" rx="3" fill="#cde2fb"/><text x="488" y="524" class="cv" style="fill:#0b0b0b">1</text>
  <rect x="516" y="504" width="52" height="32" rx="3" fill="#6da7ec"/><text x="542" y="524" class="cv" style="fill:#0b0b0b">5</text>
  <rect x="570" y="504" width="52" height="32" rx="3" fill="#9ec5f4"/><text x="596" y="524" class="cv" style="fill:#0b0b0b">4</text>
  <rect x="624" y="504" width="52" height="32" rx="3" fill="#cde2fb"/><text x="650" y="524" class="cv" style="fill:#0b0b0b">1</text>
  <rect x="678" y="504" width="52" height="32" rx="3" fill="#f0efec"/>
  <rect x="732" y="504" width="52" height="32" rx="3" fill="#f0efec"/>
  <rect x="786" y="504" width="52" height="32" rx="3" fill="#f0efec"/>
  <rect x="840" y="504" width="52" height="32" rx="3" fill="#f0efec"/>
  <rect x="894" y="504" width="52" height="32" rx="3" fill="#f0efec"/>
  <text x="290" y="558" class="rl" text-anchor="end">zimní struktura (siluety + stálezelené)</text>
  <rect x="300" y="538" width="52" height="32" rx="3" fill="#4a6e3a"/><text x="326" y="558" class="cv" style="fill:#ffffff">37</text>
  <rect x="354" y="538" width="52" height="32" rx="3" fill="#4a6e3a"/><text x="380" y="558" class="cv" style="fill:#ffffff">37</text>
  <rect x="408" y="538" width="52" height="32" rx="3" fill="#4a6e3a"/><text x="434" y="558" class="cv" style="fill:#ffffff">37</text>
  <rect x="462" y="538" width="52" height="32" rx="3" fill="#f0efec"/>
  <rect x="516" y="538" width="52" height="32" rx="3" fill="#f0efec"/>
  <rect x="570" y="538" width="52" height="32" rx="3" fill="#f0efec"/>
  <rect x="624" y="538" width="52" height="32" rx="3" fill="#f0efec"/>
  <rect x="678" y="538" width="52" height="32" rx="3" fill="#f0efec"/>
  <rect x="732" y="538" width="52" height="32" rx="3" fill="#f0efec"/>
  <rect x="786" y="538" width="52" height="32" rx="3" fill="#f0efec"/>
  <rect x="840" y="538" width="52" height="32" rx="3" fill="#4a6e3a"/><text x="866" y="558" class="cv" style="fill:#ffffff">37</text>
  <rect x="894" y="538" width="52" height="32" rx="3" fill="#4a6e3a"/><text x="920" y="558" class="cv" style="fill:#ffffff">37</text>
  <text x="300" y="598" class="subtitle">počet kvetoucích druhů:  1</text>
  <rect x="450" y="587" width="24" height="14" rx="2" fill="#cde2fb"/>
  <rect x="476" y="587" width="24" height="14" rx="2" fill="#9ec5f4"/>
  <rect x="502" y="587" width="24" height="14" rx="2" fill="#6da7ec"/>
  <rect x="528" y="587" width="24" height="14" rx="2" fill="#3987e5"/>
  <rect x="554" y="587" width="24" height="14" rx="2" fill="#256abf"/>
  <rect x="580" y="587" width="24" height="14" rx="2" fill="#184f95"/>
  <rect x="606" y="587" width="24" height="14" rx="2" fill="#0d366b"/>
  <text x="638" y="598" class="subtitle">12</text>
  <rect x="680" y="587" width="24" height="14" rx="2" fill="#4a6e3a"/><text x="710" y="598" class="subtitle">zimní struktura (jiná metrika než kvetení)</text>
  <text x="300" y="622" class="subtitle">zimní struktura = počet druhů se zimní siluetou (traviny, semeníky) + stálezelených; stojí XI–III, kompletní sestřih v březnu.</text>
  <text x="300" y="638" class="subtitle">Generováno: node generate-plansheets.js</text>
</svg>
